<?xml version="1.0" encoding="utf-8"?>
<!-- Generator: Adobe Illustrator 24.1.0, SVG Export Plug-In . SVG Version: 6.00 Build 0)  -->
<svg version="1.1" id="Layer_1" xmlns="http://www.w3.org/2000/svg" xmlns:xlink="http://www.w3.org/1999/xlink" x="0px" y="0px"
	 viewBox="0 0 1000 1000" style="enable-background:new 0 0 1000 1000;" xml:space="preserve">
<style type="text/css">
	.st0{fill:#FFFFFF;}
</style>
<g>
	<path d="M500,190c-171.2,0-310,138.8-310,310c0,112.3,59.7,210.6,149.1,265H450V470h-50v-36c23,0,50-18,50-36h100v367h110.9
		C750.3,710.6,810,612.3,810,500C810,328.8,671.2,190,500,190z M610,788v22H390v-22H610z M616,446.5c0,11.9-9.6,21.5-21.5,21.5
		s-21.5-9.6-21.5-21.5c0-11.9,9.6-21.5,21.5-21.5S616,434.6,616,446.5z"/>
</g>
</svg>
